<svg width="48" height="48" viewBox="0 0 48 48" fill="none" xmlns="http://www.w3.org/2000/svg">
<path d="M29.83 38H29.35C29.0848 38 28.8304 37.8946 28.6429 37.7071C28.4554 37.5196 28.35 37.2652 28.35 37C28.35 36.7348 28.4554 36.4804 28.6429 36.2929C28.8304 36.1054 29.0848 36 29.35 36H29.83V32.4C29.8303 32.1743 29.9069 31.9553 30.0474 31.7786C30.1879 31.6019 30.3841 31.478 30.604 31.427C31.8928 31.1361 33.1247 30.6343 34.25 29.942C34.4418 29.8222 34.6685 29.7709 34.8931 29.7965C35.1178 29.8221 35.3271 29.9231 35.487 30.083L38.015 32.611L40.615 30.011L38.087 27.483C37.9271 27.3231 37.8261 27.1138 37.8005 26.8891C37.7749 26.6645 37.8262 26.4378 37.946 26.246C38.6478 25.126 39.1549 23.8953 39.446 22.606C39.496 22.3845 39.6198 22.1866 39.7972 22.0448C39.9746 21.9031 40.1949 21.8259 40.422 21.826H44V18.17H40.42C40.1929 18.1701 39.9726 18.0929 39.7952 17.9512C39.6178 17.8094 39.494 17.6115 39.444 17.39C39.1529 16.1007 38.6458 14.87 37.944 13.75C37.8242 13.5582 37.7729 13.3315 37.7985 13.1069C37.8241 12.8822 37.9251 12.6729 38.085 12.513L40.613 9.985L38.013 7.385L35.487 9.917C35.3271 10.0769 35.1178 10.1779 34.8931 10.2035C34.6685 10.2291 34.4418 10.1778 34.25 10.058C33.1236 9.36526 31.8902 8.86381 30.6 8.574C30.3807 8.52217 30.1853 8.39777 30.0455 8.22098C29.9058 8.04418 29.8298 7.82536 29.83 7.6V4H26.17V7.6C26.17 7.82591 26.0935 8.04515 25.9529 8.22202C25.8124 8.39888 25.6161 8.52295 25.396 8.574C24.1071 8.86423 22.8752 9.36566 21.75 10.058C21.5582 10.1778 21.3315 10.2291 21.1069 10.2035C20.8822 10.1779 20.6729 10.0769 20.513 9.917L17.985 7.389L15.385 9.989L17.913 12.517C18.0729 12.6769 18.1739 12.8862 18.1995 13.1109C18.2251 13.3355 18.1738 13.5622 18.054 13.754C17.3522 14.874 16.8451 16.1047 16.554 17.394C16.504 17.6155 16.3802 17.8134 16.2028 17.9552C16.0254 18.0969 15.8051 18.1741 15.578 18.174H12V18.654C12 18.9192 11.8946 19.1736 11.7071 19.3611C11.5196 19.5486 11.2652 19.654 11 19.654C10.7348 19.654 10.4804 19.5486 10.2929 19.3611C10.1054 19.1736 10 18.9192 10 18.654V18.174C10 17.6436 10.2107 17.1349 10.5858 16.7598C10.9609 16.3847 11.4696 16.174 12 16.174H14.805C15.0854 15.2048 15.4717 14.2695 15.957 13.385L13.975 11.4C13.6004 11.025 13.3899 10.5166 13.3899 9.9865C13.3899 9.45642 13.6004 8.94801 13.975 8.573L16.575 5.973C16.76 5.78693 16.98 5.63935 17.2224 5.53877C17.4647 5.43819 17.7246 5.38661 17.987 5.387C18.2497 5.38623 18.51 5.43764 18.7528 5.53823C18.9955 5.63882 19.2158 5.7866 19.401 5.973L21.385 7.956C22.2701 7.48083 23.2038 7.10232 24.17 6.827V4C24.17 3.46957 24.3807 2.96086 24.7558 2.58579C25.1309 2.21071 25.6396 2 26.17 2H29.83C30.3604 2 30.8691 2.21071 31.2442 2.58579C31.6193 2.96086 31.83 3.46957 31.83 4V6.827C32.7969 7.10282 33.7313 7.48201 34.617 7.958L36.6 5.975C36.7857 5.7892 37.0062 5.64181 37.2489 5.54125C37.4917 5.44069 37.7518 5.38893 38.0145 5.38893C38.2772 5.38893 38.5373 5.44069 38.7801 5.54125C39.0228 5.64181 39.2433 5.7892 39.429 5.975L42.024 8.575C42.3986 8.95001 42.6091 9.45842 42.6091 9.9885C42.6091 10.5186 42.3986 11.027 42.024 11.402L40.041 13.385C40.5284 14.268 40.9171 15.2019 41.2 16.17H44C44.5304 16.17 45.0391 16.3807 45.4142 16.7558C45.7893 17.1309 46 17.6396 46 18.17V21.83C46 22.3604 45.7893 22.8691 45.4142 23.2442C45.0391 23.6193 44.5304 23.83 44 23.83H41.2C40.9194 24.7991 40.5331 25.7344 40.048 26.619L42.025 28.6C42.3999 28.9751 42.6106 29.4837 42.6106 30.014C42.6106 30.5443 42.3999 31.0529 42.025 31.428L39.425 34.028C39.05 34.4026 38.5416 34.6131 38.0115 34.6131C37.4814 34.6131 36.973 34.4026 36.598 34.028L34.613 32.043C33.7278 32.5205 32.7933 32.9004 31.826 33.176V36C31.826 36.5297 31.6158 37.0378 31.2416 37.4128C30.8674 37.7878 30.3597 37.9989 29.83 38Z" fill="#ffffff" id="id_101"></path>
<path d="M28 27.31C27.7331 27.3106 27.4768 27.2059 27.2866 27.0187C27.0964 26.8315 26.9877 26.5768 26.984 26.31C26.9823 26.1794 27.0065 26.0497 27.0553 25.9285C27.104 25.8073 27.1764 25.697 27.2681 25.604C27.3598 25.511 27.4691 25.4371 27.5896 25.3867C27.7101 25.3362 27.8394 25.3101 27.97 25.31H28C29.0502 25.31 30.0769 24.9986 30.9501 24.4151C31.8233 23.8316 32.5039 23.0023 32.9058 22.0321C33.3077 21.0618 33.4129 19.9941 33.208 18.9641C33.0031 17.934 32.4974 16.9879 31.7547 16.2453C31.0121 15.5027 30.066 14.9969 29.0359 14.792C28.0059 14.5871 26.9382 14.6923 25.968 15.0942C24.9977 15.4961 24.1684 16.1767 23.5849 17.0499C23.0014 17.9232 22.69 18.9498 22.69 20C22.6905 20.2668 22.5858 20.523 22.3986 20.713C22.2114 20.9031 21.9568 21.0116 21.69 21.015C21.5595 21.0166 21.43 20.9923 21.3089 20.9436C21.1879 20.8948 21.0777 20.8225 20.9847 20.731C20.8917 20.6394 20.8178 20.5303 20.7672 20.41C20.7166 20.2897 20.6904 20.1605 20.69 20.03C20.6841 18.583 21.1077 17.1667 21.9073 15.9606C22.707 14.7546 23.8465 13.813 25.1817 13.2551C26.5169 12.6972 27.9877 12.5482 29.4076 12.8268C30.8276 13.1055 32.1329 13.7993 33.1582 14.8204C34.1836 15.8416 34.8828 17.144 35.1673 18.5628C35.4518 19.9816 35.3088 21.453 34.7564 22.7905C34.204 24.1279 33.2671 25.2714 32.0643 26.0759C30.8616 26.8805 29.4471 27.31 28 27.31V27.31Z" fill="#fcffff" id="id_102"></path>
<path d="M16 46H14C13.4696 46 12.9609 45.7893 12.5858 45.4142C12.2107 45.0391 12 44.5304 12 44V42.517C11.443 42.3449 10.9019 42.1248 10.383 41.859L9.343 42.9C8.96795 43.2749 8.45933 43.4856 7.929 43.4856C7.39867 43.4856 6.89006 43.2749 6.515 42.9L5.1 41.485C4.72506 41.1099 4.51443 40.6013 4.51443 40.071C4.51443 39.5407 4.72506 39.0321 5.1 38.657L6.138 37.619C5.86602 37.1005 5.64112 36.5587 5.466 36H4C3.46957 36 2.96086 35.7893 2.58579 35.4142C2.21071 35.0391 2 34.5304 2 34V32C2 31.4696 2.21071 30.9609 2.58579 30.5858C2.96086 30.2107 3.46957 30 4 30H5.466C5.64144 29.4413 5.86668 28.8994 6.139 28.381L5.1 27.343C4.72506 26.9679 4.51443 26.4593 4.51443 25.929C4.51443 25.3987 4.72506 24.8901 5.1 24.515L6.515 23.1C6.89006 22.7251 7.39867 22.5144 7.929 22.5144C8.45933 22.5144 8.96795 22.7251 9.343 23.1L10.383 24.14C10.9018 23.8742 11.4428 23.6543 12 23.483V22C12 21.4696 12.2107 20.9609 12.5858 20.5858C12.9609 20.2107 13.4696 20 14 20H16C16.5304 20 17.0391 20.2107 17.4142 20.5858C17.7893 20.9609 18 21.4696 18 22V23.483C18.5572 23.6546 19.0983 23.8748 19.617 24.141L20.657 23.101C21.0321 22.7261 21.5407 22.5154 22.071 22.5154C22.6013 22.5154 23.1099 22.7261 23.485 23.101L24.9 24.515C25.2749 24.8901 25.4856 25.3987 25.4856 25.929C25.4856 26.4593 25.2749 26.9679 24.9 27.343L23.862 28.381C24.134 28.8995 24.3589 29.4413 24.534 30H26C26.5304 30 27.0391 30.2107 27.4142 30.5858C27.7893 30.9609 28 31.4696 28 32V34C28 34.5304 27.7893 35.0391 27.4142 35.4142C27.0391 35.7893 26.5304 36 26 36H24.534C24.3586 36.5587 24.1333 37.1006 23.861 37.619L24.9 38.657C25.2749 39.0321 25.4856 39.5407 25.4856 40.071C25.4856 40.6013 25.2749 41.1099 24.9 41.485L23.485 42.9C23.1099 43.2749 22.6013 43.4856 22.071 43.4856C21.5407 43.4856 21.0321 43.2749 20.657 42.9L19.617 41.86C19.098 42.1254 18.557 42.3452 18 42.517V44C18 44.5304 17.7893 45.0391 17.4142 45.4142C17.0391 45.7893 16.5304 46 16 46V46ZM10.215 39.613C10.4033 39.6132 10.5877 39.6666 10.747 39.767C11.5108 40.2395 12.3484 40.5806 13.225 40.776C13.4454 40.8269 13.6421 40.951 13.7828 41.1281C13.9236 41.3052 14.0001 41.5248 14 41.751V44H16V41.751C15.9999 41.5248 16.0764 41.3052 16.2172 41.1281C16.3579 40.951 16.5546 40.8269 16.775 40.776C17.6516 40.5806 18.4892 40.2395 19.253 39.767C19.4447 39.6464 19.6717 39.5945 19.8968 39.6198C20.1219 39.645 20.3317 39.7459 20.492 39.906L22.071 41.485L23.485 40.071L21.906 38.492C21.7459 38.3316 21.645 38.1215 21.6199 37.8962C21.5948 37.6709 21.647 37.4437 21.768 37.252C22.2493 36.4916 22.5983 35.6551 22.8 34.778C22.8501 34.5579 22.9733 34.3612 23.1494 34.2199C23.3255 34.0786 23.5442 34.0011 23.77 34H26V32H23.77C23.5434 32 23.3235 31.923 23.1463 31.7817C22.9692 31.6403 22.8453 31.443 22.795 31.222C22.5948 30.3453 22.2476 29.5088 21.768 28.748C21.647 28.5563 21.5948 28.3291 21.6199 28.1038C21.645 27.8785 21.7459 27.6684 21.906 27.508L23.485 25.929L22.071 24.515L20.492 26.094C20.3316 26.2541 20.1215 26.355 19.8962 26.3801C19.6709 26.4052 19.4437 26.353 19.252 26.232C18.4887 25.7594 17.6514 25.4186 16.775 25.224C16.5546 25.1731 16.3579 25.049 16.2172 24.8719C16.0764 24.6948 15.9999 24.4752 16 24.249V22H14V24.249C14.0001 24.4752 13.9236 24.6948 13.7828 24.8719C13.6421 25.049 13.4454 25.1731 13.225 25.224C12.3486 25.4186 11.5113 25.7594 10.748 26.232C10.5563 26.353 10.3291 26.4052 10.1038 26.3801C9.87854 26.355 9.66844 26.2541 9.508 26.094L7.929 24.515L6.515 25.929L8.094 27.508C8.25414 27.6684 8.35502 27.8785 8.3801 28.1038C8.40517 28.3291 8.35295 28.5563 8.232 28.748C7.75244 29.5088 7.40519 30.3453 7.205 31.222C7.15469 31.443 7.03081 31.6403 6.85367 31.7817C6.67653 31.923 6.45663 32 6.23 32H4V34H6.23C6.45663 34 6.67653 34.077 6.85367 34.2183C7.03081 34.3597 7.15469 34.557 7.205 34.778C7.40519 35.6547 7.75244 36.4912 8.232 37.252C8.35295 37.4437 8.40517 37.6709 8.3801 37.8962C8.35502 38.1215 8.25414 38.3316 8.094 38.492L6.515 40.071L7.929 41.485L9.508 39.906C9.69549 39.7184 9.94981 39.6131 10.215 39.613V39.613Z" fill="#ffffff" id="id_103"></path>
<path d="M15 38C14.0111 38 13.0444 37.7068 12.2221 37.1574C11.3999 36.6079 10.759 35.8271 10.3806 34.9134C10.0022 33.9998 9.90315 32.9945 10.0961 32.0246C10.289 31.0546 10.7652 30.1637 11.4645 29.4645C12.1637 28.7652 13.0546 28.289 14.0245 28.0961C14.9945 27.9031 15.9998 28.0022 16.9134 28.3806C17.827 28.759 18.6079 29.3999 19.1573 30.2222C19.7068 31.0444 20 32.0111 20 33C19.9984 34.3256 19.4711 35.5964 18.5338 36.5338C17.5964 37.4711 16.3256 37.9984 15 38V38ZM15 30C14.4067 30 13.8266 30.1759 13.3333 30.5056C12.8399 30.8352 12.4554 31.3038 12.2284 31.852C12.0013 32.4001 11.9419 33.0033 12.0576 33.5853C12.1734 34.1672 12.4591 34.7018 12.8787 35.1213C13.2982 35.5409 13.8328 35.8266 14.4147 35.9424C14.9967 36.0581 15.5999 35.9987 16.148 35.7716C16.6962 35.5446 17.1648 35.1601 17.4944 34.6667C17.8241 34.1734 18 33.5933 18 33C18 32.2044 17.6839 31.4413 17.1213 30.8787C16.5587 30.3161 15.7956 30 15 30V30Z" fill="#ffffff" id="id_104"></path>
</svg>