<svg version="1.1" id="Layer_1" xmlns="http://www.w3.org/2000/svg" xmlns:xlink="http://www.w3.org/1999/xlink" x="0px" y="0px" viewBox="0 0 64 64.1999969" style="enable-background:new 0 0 64 64.1999969;" xml:space="preserve">
<path d="M14.7099609,42.2192383v15.2109375c0,0.5522461,0.4477539,1,1,1h32.5800781c0.5522461,0,1-0.4477539,1-1V42.2192383
	C56.4384766,41.3706055,62,35.2724609,62,27.8999023c0-7.9624023-6.46875-14.4399414-14.4199219-14.4399414
	c-0.9707031,0-1.9399414,0.097168-2.8920898,0.2895508C42.3481445,8.8745117,37.4570312,5.7700195,32,5.7700195
	s-10.3481445,3.1044922-12.6879883,7.9794922c-0.9521484-0.1923828-1.9213867-0.2895508-2.8920898-0.2895508
	C8.46875,13.4599609,2,19.9375,2,27.8999023C2,35.2724609,7.5615234,41.3706055,14.7099609,42.2192383z M16.4199219,15.4599609
	c1.0834961,0,2.1655273,0.1401367,3.215332,0.4169922c0.4838867,0.128418,0.9907227-0.1240234,1.1806641-0.5883789
	C22.6826172,10.7211914,27.0727539,7.7700195,32,7.7700195s9.3173828,2.9511719,11.184082,7.5185547
	c0.1899414,0.4643555,0.6943359,0.7167969,1.1806641,0.5883789c1.0498047-0.2768555,2.1318359-0.4169922,3.215332-0.4169922
	C54.4282227,15.4599609,60,21.0405273,60,27.8999023c0,6.8481445-5.5717773,12.4199219-12.4199219,12.4199219
	c-0.5522461,0-1,0.4477539-1,1c0,0.4516602,0.2993164,0.8330078,0.7099609,0.9575195v14.152832H16.7099609v-4.2177734h24.8613281
	c0.5522461,0,1-0.4477539,1-1s-0.4477539-1-1-1H16.7099609v-1.7836914h24.8613281c0.5522461,0,1-0.4477539,1-1s-0.4477539-1-1-1
	H16.7099609v-4.1513672c0.4106445-0.1245117,0.7099609-0.5058594,0.7099609-0.9575195c0-0.5522461-0.4477539-1-1-1
	C9.5717773,40.3198242,4,34.7480469,4,27.8999023C4,21.0405273,9.5717773,15.4599609,16.4199219,15.4599609z" id="id_114" style="fill: rgb(255, 255, 255);"></path>
</svg>