<?xml version="1.0" encoding="UTF-8" standalone="no"?> <svg version="1.1" viewBox="0 0 16 16" xmlns="http://www.w3.org/2000/svg" xmlns:xlink="http://www.w3.org/1999/xlink"><g><path d="M1,8c0,-2.96509 2.16974,-5.41089 5,-5.8916v0.891602l2,-1.5l-2,-1.5v1.08099c-3.3866,0.487854 -6,3.40009 -6,6.91901c0,2.52917 1.35309,4.74298 3.36902,5.97314l0.869385,-0.652039c-1.92145,-1.00128 -3.2384,-3.00854 -3.2384,-5.32111Z" transform="translate(1, 0)"></path><path d="M8,5.97314c0,-2.52917 -1.35309,-4.74298 -3.36902,-5.97314l-0.869385,0.652039c1.92145,1.00128 3.2384,3.00855 3.2384,5.32111c0,2.96588 -2.16864,5.41882 -5,5.89844v-0.898499l-2,1.5l2,1.50006v-1.08173c3.38635,-0.487915 6,-3.39941 6,-6.91827Z" transform="translate(7, 2.02686)"></path></g></svg>